<svg
   width="256"
   height="256"
   viewBox="0 0 67.733333 67.733333"
   version="1.1"
   id="svg1"
   xml:space="preserve"
   inkscape:version="1.3.2 (1:1.3.2+202311252150+091e20ef0f)"
   sodipodi:docname="gaviate.svg"
   xmlns:inkscape="http://www.inkscape.org/namespaces/inkscape"
   xmlns:sodipodi="http://sodipodi.sourceforge.net/DTD/sodipodi-0.dtd"
   xmlns:xlink="http://www.w3.org/1999/xlink"
   xmlns="http://www.w3.org/2000/svg"
   xmlns:svg="http://www.w3.org/2000/svg"><sodipodi:namedview
     id="namedview1"
     pagecolor="#ffffff"
     bordercolor="#666666"
     borderopacity="1.0"
     inkscape:showpageshadow="2"
     inkscape:pageopacity="0.0"
     inkscape:pagecheckerboard="0"
     inkscape:deskcolor="#d1d1d1"
     inkscape:document-units="mm"
     showguides="true"
     inkscape:zoom="2.0233293"
     inkscape:cx="120.59332"
     inkscape:cy="120.84044"
     inkscape:window-width="1920"
     inkscape:window-height="1016"
     inkscape:window-x="0"
     inkscape:window-y="0"
     inkscape:window-maximized="1"
     inkscape:current-layer="layer1" /><defs
     id="defs1"><linearGradient
       id="linearGradient3"
       inkscape:collect="always"><stop
         style="stop-color:#d40000;stop-opacity:1;"
         offset="0"
         id="stop3" /><stop
         style="stop-color:#710000;stop-opacity:1;"
         offset="1"
         id="stop4" /></linearGradient><linearGradient
       inkscape:collect="always"
       xlink:href="#linearGradient3"
       id="linearGradient4"
       x1="39.051807"
       y1="102.74682"
       x2="78.891724"
       y2="102.74682"
       gradientUnits="userSpaceOnUse"
       gradientTransform="matrix(1.6360478,0,0,1.6360478,-23.562163,-47.914395)" /></defs><g
     inkscape:label="Capa 1"
     inkscape:groupmode="layer"
     id="layer1"
     transform="translate(-39.051809,-86.317621)"><path
       id="text1"
       style="font-weight:500;font-size:43.455px;line-height:1.25;font-family:'AvantGarde LT Medium';-inkscape-font-specification:'AvantGarde LT Medium, Medium';fill:url(#linearGradient4);stroke-width:0.407969"
       d="m 40.370526,93.305362 c 0.0012,2.306824 -0.303233,6.184487 0.709101,8.261188 0.834482,1.71189 2.739273,2.88514 4.186138,4.03803 3.13895,2.50112 6.316723,4.94818 9.484478,7.41238 2.027156,1.57696 4.094455,3.1044 6.117125,4.68634 0.235601,0.18427 0.507765,0.39244 0.746128,0.62387 -0.04463,0.16116 -0.09327,0.31979 -0.134843,0.48275 -0.148094,0.58069 -0.265407,1.16714 -0.365378,1.75703 -1.388496,0.14038 -3.607512,-1.48239 -4.527063,-1.94216 -5.229407,-2.6147 -10.59371,-6.56618 -16.215696,-8.18575 0.22577,1.77716 0.193859,4.9095 1.396544,6.30575 4.434644,5.14848 16.162578,3.73637 18.490403,10.82794 L 43.735776,122.9835 c 1.704204,5.91573 6.720535,5.64297 11.932446,6.83741 2.426232,0.55599 4.978041,0.42127 6.119221,2.95304 l -11.62645,-0.30599 c 1.570237,2.03452 4.430631,3.6201 7.037209,3.66567 2.540182,0.0444 5.244739,-1.42756 7.037211,0.92357 l -3.97795,1.83598 5.201932,1.10312 1.077275,-0.38565 c 0.926683,1.05679 1.941111,2.02451 3.04459,2.90139 2.267349,1.731 4.82509,3.00428 7.672955,3.82076 2.881046,0.77209 5.891819,0.93222 9.031774,0.47994 2.597247,-0.37407 5.143693,-1.23539 7.640118,-2.58418 2.496428,-1.34881 4.657908,-3.10399 6.483203,-5.26621 1.8253,-2.16223 3.19819,-4.71474 4.11977,-7.6569 0.95476,-2.98649 1.21161,-6.28805 0.76988,-9.90434 l -27.213386,3.91996 0.829264,5.75663 20.060904,-2.88949 c -0.440931,1.88368 -1.039586,3.49314 -1.796856,4.82886 -0.757269,1.33571 -1.601005,2.48568 -2.530403,3.45049 -0.934982,0.92607 -1.895182,1.678 -2.880414,2.25516 -0.946471,0.57159 -1.848369,1.03763 -2.706459,1.39865 -0.824915,0.3166 -1.544789,0.53902 -2.159437,0.66717 -0.614649,0.12811 -1.018983,0.20611 -1.212808,0.23404 -2.054539,0.29591 -4.109833,0.17649 -6.16533,-0.35839 -2.022316,-0.57924 -3.872987,-1.47943 -5.55264,-2.70156 -1.685237,-1.2609 -3.138001,-2.83254 -4.358697,-4.7143 -1.18193,-1.88737 -1.943201,-4.01307 -2.283789,-6.37771 -0.323843,-2.24837 -0.224019,-4.43962 0.299706,-6.57263 0.01146,-0.0466 0.02524,-0.0918 0.03702,-0.13825 0.104397,-0.26042 0.186895,-0.51767 0.211682,-0.76568 0.533723,-1.77605 1.31934,-3.40101 2.361339,-4.87289 1.210961,-1.75719 2.721431,-3.22148 4.531256,-4.39223 1.809824,-1.17077 3.838723,-1.91804 6.087085,-2.24188 1.58936,-0.22891 3.035145,-0.21909 4.337039,0.0286 1.301896,0.24775 2.482153,0.612 3.540613,1.09264 1.058456,0.48065 1.965109,1.00293 2.719031,1.56701 0.792686,0.55851 1.457498,1.05601 1.995264,1.49298 l 7.326436,-1.05495 c -1.325824,-1.78748 -2.828546,-3.29235 -4.508199,-4.51448 -1.646472,-1.26648 -3.392321,-2.26177 -5.237562,-2.9852 -1.806477,-0.72905 -3.673131,-1.19238 -5.600845,-1.38955 -1.9333,-0.23594 -3.811033,-0.2226 -5.632984,0.0397 -3.10119,0.44668 -5.902719,1.46392 -8.40441,3.05087 -2.507274,1.54821 -4.601613,3.49141 -6.282698,5.83069 -0.585004,0.79792 -1.108567,1.63328 -1.578885,2.50038 -0.751421,-0.67568 -1.475705,-1.3129 -2.048358,-1.8828 -4.251242,-4.23072 -8.937014,-8.0831 -13.461729,-12.018371 -2.409765,-2.095852 -4.807876,-4.865627 -7.649201,-6.33928 z" /></g></svg>
